<svg width="103" height="43" fill="none" xmlns="http://www.w3.org/2000/svg"><path fill="#4098B4" d="M4 0h99v24H4z"/><g filter="url(#filter0_di)"><path d="M4.781 4.936V3.922l3.614.086 5.456-.11c1.066 0 1.908.11 2.527.33.618.22 1.147.618 1.587 1.196.447.578.671 1.326.671 2.246a5.25 5.25 0 01-.647 2.563c-.423.79-1.09 1.44-2.002 1.954a5.863 5.863 0 01-2.905.756c-.26 0-.517-.012-.769-.036a7.699 7.699 0 01-.732-.134 5.09 5.09 0 00-.44-.867l.257-.269c.178.057.345.102.5.134.163.025.31.037.44.037.789 0 1.44-.277 1.953-.83.512-.562.769-1.375.769-2.441 0-1.115-.269-1.954-.806-2.515-.537-.562-1.286-.842-2.246-.842a8.38 8.38 0 00-1.526.158c-.04.505-.065 1.245-.073 2.222l-.037 2.393v4.626c0 1.14.016 2.32.049 3.54.024.708.07 1.156.134 1.343a.582.582 0 00.159.22c.081.057.224.101.427.134l1.648.11V21a217.44 217.44 0 00-4.7-.073c-1.155 0-2.258.024-3.308.073v-1.074c.904-.016 1.473-.086 1.71-.208a.415.415 0 00.17-.183c.057-.114.102-.41.134-.891.09-1.302.135-2.75.135-4.346V9.99l-.05-2.295c-.015-.984-.036-1.599-.06-1.843-.016-.244-.053-.419-.11-.525a.43.43 0 00-.17-.17c-.074-.05-.213-.094-.416-.135l-1.343-.085zm29.093 10.131h-.977c-.024-1.017-.093-1.631-.207-1.843-.057-.106-.203-.183-.44-.232-.602-.106-1.554-.159-2.856-.159-.187 0-.513.005-.976.013V14.2c0 1.928.02 3.283.06 4.065.05.773.114 1.224.196 1.355.057.09.159.162.305.22.146.048.785.113 1.916.195V21l-4.785-.085c-.691 0-1.786.028-3.283.085v-1.013c.935-.016 1.477-.053 1.623-.11a.373.373 0 00.183-.134c.073-.098.13-.31.171-.635.025-.187.057-.773.098-1.758.04-.993.06-1.705.06-2.136V10.16c0-.114-.036-1.253-.109-3.418-.016-.626-.061-1.07-.134-1.33a.34.34 0 00-.122-.196c-.05-.049-.163-.093-.342-.134-.171-.04-.647-.085-1.428-.134V3.922l4.333.074 5.872-.098c.822 0 1.599.04 2.331.122l.11.17a18.36 18.36 0 00-.232 1.77 25.374 25.374 0 00-.11 1.88h-1c0-.194-.021-.634-.062-1.318-.016-.358-.04-.573-.073-.647a.232.232 0 00-.11-.122c-.146-.097-.488-.19-1.025-.28a10.412 10.412 0 00-1.868-.147c-.138 0-.525.012-1.16.037a47.88 47.88 0 00-1.281.06c-.09.815-.134 2.284-.134 4.408v1.709c1.041.032 1.745.048 2.111.048 1.058 0 1.726-.048 2.002-.146.106-.033.183-.126.232-.28.073-.204.118-.668.135-1.392h1.061a135.447 135.447 0 00-.085 5.297zm22.245 3.724l-.562 1.232c-1.017.538-1.933.904-2.747 1.1-.805.203-1.814.304-3.027.304-1.725 0-3.25-.272-4.577-.818-1.042-.44-1.925-1.02-2.65-1.745a8.19 8.19 0 01-1.672-2.356c-.594-1.278-.89-2.665-.89-4.163 0-2.563.874-4.655 2.624-6.274 1.758-1.628 4.235-2.442 7.434-2.442 1.098 0 2.083.082 2.954.245.879.162 1.896.451 3.052.866l.06.159c-.13.382-.231.863-.305 1.44a28.71 28.71 0 00-.232 2.552h-.952a21.966 21.966 0 00-.122-2.149 5.28 5.28 0 00-1.843-1.27c-.675-.284-1.542-.427-2.6-.427-1.913 0-3.442.607-4.59 1.82-1.147 1.204-1.721 2.888-1.721 5.053 0 1.31.191 2.454.574 3.43.39.977.907 1.786 1.55 2.43.643.634 1.29 1.098 1.94 1.39.888.392 1.962.587 3.224.587.83 0 1.615-.094 2.356-.28.74-.188 1.546-.51 2.416-.965l.306.28z" fill="#fff"/></g><path d="M4.36 32v-.21c.36 0 .57-.067.63-.2v-5.03c-.06-.133-.27-.2-.63-.2v-.21h2.66c.82 0 1.443.157 1.87.47.433.313.65.663.65 1.05 0 .5-.2.903-.6 1.21-.4.307-1 .46-1.8.46h-.88v2.25c.06.133.27.2.63.2V32H4.36zm1.9-5.51V29h.53c.513 0 .873-.1 1.08-.3.213-.207.32-.547.32-1.02 0-.793-.507-1.19-1.52-1.19h-.41zm5.587 3.1c.013.58.143 1.08.39 1.5.253.42.573.63.96.63.58 0 1.047-.22 1.4-.66l.24.12c-.193.32-.447.553-.76.7-.307.147-.713.22-1.22.22-.26 0-.513-.037-.76-.11a2.79 2.79 0 01-.74-.38c-.24-.18-.437-.443-.59-.79-.147-.347-.22-.76-.22-1.24 0-.58.203-1.07.61-1.47.413-.407.947-.61 1.6-.61.713 0 1.267.203 1.66.61.393.4.59.893.59 1.48h-3.16zm.01-.31h1.82c-.04-.473-.123-.837-.25-1.09-.12-.26-.317-.39-.59-.39-.24 0-.457.123-.65.37-.187.24-.297.61-.33 1.11zm4.33 2.72v-.21c.36 0 .57-.067.63-.2V28.2c-.36-.027-.57-.04-.63-.04v-.23c.127 0 .433-.07.92-.21.486-.147.806-.22.96-.22v.42c.346-.28.677-.42.99-.42.827 0 1.24.2 1.24.6a.495.495 0 01-.5.52c-.154 0-.27-.04-.35-.12a.523.523 0 01-.15-.27.66.66 0 00-.12-.27.27.27 0 00-.24-.12c-.254 0-.544.14-.87.42v3.33c.06.133.27.2.63.2V32h-2.51zm6.875-.3c.454 0 .68-.207.68-.62 0-.113-.08-.223-.24-.33a3.826 3.826 0 00-.58-.33 8.7 8.7 0 01-.68-.38 1.979 1.979 0 01-.58-.55 1.348 1.348 0 01-.24-.78c0-.373.14-.667.42-.88.287-.22.627-.33 1.02-.33.227 0 .46.05.7.15.24.1.377.15.41.15.08 0 .12-.067.12-.2h.23l.1 1.46h-.22c-.066-.28-.24-.553-.52-.82-.273-.267-.536-.4-.79-.4-.473 0-.71.173-.71.52 0 .12.13.26.39.42.26.153.544.303.85.45.307.147.59.357.85.63s.39.573.39.9c0 .413-.156.74-.47.98-.313.24-.716.36-1.21.36-.24 0-.483-.05-.73-.15-.246-.1-.383-.15-.41-.15-.08 0-.12.067-.12.2h-.24l-.1-1.53h.22c.067.267.267.54.6.82.34.273.627.41.86.41zm4.235-2.18c0 .787.103 1.363.31 1.73.213.367.537.55.97.55.3 0 .53-.157.69-.47.16-.32.24-.74.24-1.26 0-.813-.097-1.393-.29-1.74-.187-.347-.523-.52-1.01-.52-.287 0-.51.167-.67.5-.16.333-.24.737-.24 1.21zm1.15 2.58c-.753 0-1.353-.22-1.8-.66-.44-.44-.66-1.013-.66-1.72 0-.633.2-1.16.6-1.58.407-.427 1.003-.64 1.79-.64.793 0 1.397.21 1.81.63.42.42.63.99.63 1.71 0 .64-.2 1.177-.6 1.61-.4.433-.99.65-1.77.65zm3.62-.1v-.21c.36 0 .57-.067.63-.2V28.2c-.36-.027-.57-.04-.63-.04v-.23c.126 0 .432-.07.92-.21.486-.147.806-.22.96-.22v.42c.332-.28.7-.42 1.1-.42.64 0 1.136.12 1.49.36.352.233.53.587.53 1.06v2.67c.06.133.27.2.63.2V32h-2.51v-.21c.36 0 .57-.067.63-.2v-2.74c0-.3-.07-.543-.21-.73-.134-.187-.34-.28-.62-.28-.414 0-.76.133-1.04.4v3.35c.06.133.27.2.63.2V32h-2.51zm7.726-3.66c.153 0 .23.137.23.41 0 .113-.057.2-.17.26a.759.759 0 01-.36.09.532.532 0 01-.36-.14.47.47 0 01-.15-.36c0-.34.167-.607.5-.8.34-.2.78-.3 1.32-.3.633 0 1.127.16 1.48.48.353.313.53.713.53 1.2v1.98c0 .213.033.37.1.47.073.1.16.15.26.15a.391.391 0 00.23-.07c.073-.047.11-.103.11-.17h.18c0 .36-.367.54-1.1.54-.34 0-.603-.12-.79-.36-.4.253-.863.38-1.39.38-1.113 0-1.67-.407-1.67-1.22 0-.167.057-.317.17-.45.12-.133.3-.247.54-.34a7.38 7.38 0 01.64-.22c.193-.053.457-.113.79-.18.333-.073.56-.127.68-.16 0-.627-.053-1.06-.16-1.3-.1-.247-.333-.37-.7-.37-.22 0-.42.047-.6.14-.173.087-.277.2-.31.34zm1.87 3.14c-.067-.18-.1-.38-.1-.6v-1.13c-.567.173-.94.317-1.12.43-.28.187-.42.427-.42.72 0 .307.063.527.19.66.133.133.283.2.45.2.293 0 .627-.093 1-.28zm2.7.52v-.21c.36 0 .57-.067.63-.2V26.4c-.36-.027-.57-.04-.63-.04v-.23c.126 0 .433-.07.92-.21.486-.147.806-.22.96-.22v5.89c.06.133.27.2.63.2V32h-2.51zm9.917 0v-.21c.36 0 .57-.067.63-.2v-5.03c-.06-.133-.27-.2-.63-.2v-.21h4.13v.97h-.21c0-.36-.067-.57-.2-.63h-1.82v2.3h1.15c.133-.06.2-.27.2-.63h.21v1.6h-.21c0-.36-.067-.57-.2-.63h-1.15v2.46c.06.133.27.2.63.2V32h-2.53zm5.111 0v-.21c.36 0 .57-.067.63-.2V28.2a12.24 12.24 0 00-.63-.04v-.23c.127 0 .434-.07.92-.21.487-.147.807-.22.96-.22v4.09c.06.133.27.2.63.2V32h-2.51zm1.23-5.14a.871.871 0 01-.49-.17c-.16-.12-.24-.26-.24-.42 0-.14.074-.27.22-.39a.769.769 0 01.48-.18c.16 0 .32.06.48.18.167.113.25.253.25.42 0 .14-.076.27-.23.39a.755.755 0 01-.47.17zm2.36 5.14v-.21c.36 0 .57-.067.63-.2V28.2c-.36-.027-.57-.04-.63-.04v-.23c.127 0 .434-.07.92-.21.487-.147.807-.22.96-.22v.42c.334-.28.7-.42 1.1-.42.64 0 1.138.12 1.49.36.354.233.53.587.53 1.06v2.67c.06.133.27.2.63.2V32h-2.51v-.21c.36 0 .57-.067.63-.2v-2.74c0-.3-.07-.543-.21-.73-.133-.187-.34-.28-.62-.28-.412 0-.76.133-1.04.4v3.35c.06.133.27.2.63.2V32h-2.51zm7.728-3.66c.153 0 .23.137.23.41 0 .113-.057.2-.17.26a.758.758 0 01-.36.09.533.533 0 01-.36-.14.47.47 0 01-.15-.36c0-.34.166-.607.5-.8.34-.2.78-.3 1.32-.3.633 0 1.126.16 1.48.48.353.313.53.713.53 1.2v1.98c0 .213.033.37.1.47.073.1.16.15.26.15a.39.39 0 00.23-.07c.073-.047.11-.103.11-.17h.18c0 .36-.367.54-1.1.54-.34 0-.604-.12-.79-.36-.4.253-.864.38-1.39.38-1.114 0-1.67-.407-1.67-1.22 0-.167.056-.317.17-.45.12-.133.3-.247.54-.34a7.38 7.38 0 01.64-.22c.193-.053.456-.113.79-.18.333-.073.56-.127.68-.16 0-.627-.054-1.06-.16-1.3-.1-.247-.334-.37-.7-.37-.22 0-.42.047-.6.14-.174.087-.277.2-.31.34zm1.87 3.14c-.067-.18-.1-.38-.1-.6v-1.13c-.567.173-.94.317-1.12.43-.28.187-.42.427-.42.72 0 .307.063.527.19.66.133.133.283.2.45.2.293 0 .626-.093 1-.28zm2.799.52v-.21c.36 0 .57-.067.63-.2V28.2c-.36-.027-.57-.04-.63-.04v-.23c.127 0 .433-.07.92-.21.487-.147.807-.22.96-.22v.42c.333-.28.7-.42 1.1-.42.64 0 1.137.12 1.49.36.353.233.53.587.53 1.06v2.67c.06.133.27.2.63.2V32h-2.51v-.21c.36 0 .57-.067.63-.2v-2.74c0-.3-.07-.543-.21-.73-.133-.187-.34-.28-.62-.28-.413 0-.76.133-1.04.4v3.35c.06.133.27.2.63.2V32h-2.51zm9.128-4.2c-.314 0-.58.16-.8.48-.22.313-.33.733-.33 1.26 0 .593.12 1.107.36 1.54.24.427.553.64.94.64.56 0 .983-.24 1.27-.72l.37.18a1.75 1.75 0 01-.76.7c-.307.147-.714.22-1.22.22-.2 0-.397-.023-.59-.07a2.017 2.017 0 01-.6-.24 2.07 2.07 0 01-.54-.45 2.15 2.15 0 01-.38-.72c-.1-.307-.15-.653-.15-1.04 0-.573.22-1.063.66-1.47.44-.407.996-.61 1.67-.61.54 0 .973.093 1.3.28.333.18.5.44.5.78a.63.63 0 01-.13.41c-.08.107-.204.16-.37.16a.644.644 0 01-.39-.11.39.39 0 01-.14-.31c0-.14.033-.243.1-.31a.362.362 0 01.25-.1c-.087-.333-.427-.5-1.02-.5zM87.52 32v-.21c.36 0 .57-.067.63-.2V28.2c-.347-.027-.557-.04-.63-.04v-.23c.127 0 .433-.07.92-.21.487-.147.807-.22.96-.22v4.09c.06.133.27.2.63.2V32h-2.51zm1.23-5.14a.871.871 0 01-.49-.17c-.16-.12-.24-.26-.24-.42 0-.14.073-.27.22-.39a.769.769 0 01.48-.18c.16 0 .32.06.48.18.167.113.25.253.25.42 0 .14-.077.27-.23.39a.755.755 0 01-.47.17zm3.42 1.48c.154 0 .23.137.23.41 0 .113-.056.2-.17.26a.758.758 0 01-.36.09.533.533 0 01-.36-.14.47.47 0 01-.15-.36c0-.34.167-.607.5-.8.34-.2.78-.3 1.32-.3.634 0 1.127.16 1.48.48.354.313.53.713.53 1.2v1.98c0 .213.034.37.1.47.074.1.16.15.26.15a.39.39 0 00.23-.07c.074-.047.11-.103.11-.17h.18c0 .36-.366.54-1.1.54-.34 0-.603-.12-.79-.36-.4.253-.863.38-1.39.38-1.113 0-1.67-.407-1.67-1.22 0-.167.057-.317.17-.45.12-.133.3-.247.54-.34.24-.093.454-.167.64-.22.194-.053.457-.113.79-.18.334-.073.56-.127.68-.16 0-.627-.053-1.06-.16-1.3-.1-.247-.333-.37-.7-.37-.22 0-.42.047-.6.14-.173.087-.276.2-.31.34zm1.87 3.14c-.066-.18-.1-.38-.1-.6v-1.13c-.566.173-.94.317-1.12.43-.28.187-.42.427-.42.72 0 .307.064.527.19.66.134.133.284.2.45.2.294 0 .627-.093 1-.28zm2.7.52v-.21c.36 0 .57-.067.63-.2V26.4c-.36-.027-.57-.04-.63-.04v-.23c.127 0 .433-.07.92-.21.487-.147.807-.22.96-.22v5.89c.06.133.27.2.63.2V32h-2.51zM7.5 36.39c-.56 0-.993.23-1.3.69-.3.46-.45 1.08-.45 1.86 0 .907.163 1.603.49 2.09.327.487.76.73 1.3.73.327 0 .623-.11.89-.33.273-.227.46-.477.56-.75l.41.12a2.241 2.241 0 01-.73.93c-.327.247-.77.37-1.33.37-.893 0-1.613-.29-2.16-.87a2.915 2.915 0 01-.82-2.07c0-.927.313-1.677.94-2.25a3.143 3.143 0 012.19-.86c.193 0 .433.05.72.15.287.1.45.15.49.15.08 0 .12-.067.12-.2h.23l.08 1.41h-.22c-.04-.273-.213-.537-.52-.79-.307-.253-.603-.38-.89-.38zm4.357 3.13c0 .787.103 1.363.31 1.73.213.367.537.55.97.55.3 0 .53-.157.69-.47.16-.32.24-.74.24-1.26 0-.813-.097-1.393-.29-1.74-.187-.347-.523-.52-1.01-.52-.287 0-.51.167-.67.5-.16.333-.24.737-.24 1.21zm1.15 2.58c-.753 0-1.353-.22-1.8-.66-.44-.44-.66-1.013-.66-1.72 0-.633.2-1.16.6-1.58.407-.427 1.003-.64 1.79-.64.793 0 1.397.21 1.81.63.42.42.63.99.63 1.71 0 .64-.2 1.177-.6 1.61-.4.433-.99.65-1.77.65zm3.62-.1v-.21c.36 0 .57-.067.63-.2V38.2c-.36-.027-.57-.04-.63-.04v-.23c.126 0 .433-.07.92-.21.486-.147.806-.22.96-.22v.42c.333-.28.7-.42 1.1-.42.64 0 1.136.12 1.49.36.353.233.53.587.53 1.06v2.67c.06.133.27.2.63.2V42h-2.51v-.21c.36 0 .57-.067.63-.2v-2.74c0-.3-.07-.543-.21-.73-.134-.187-.34-.28-.62-.28-.414 0-.76.133-1.04.4v3.35c.06.133.27.2.63.2V42h-2.51zm8.486-.3c.454 0 .68-.207.68-.62 0-.113-.08-.223-.24-.33a3.826 3.826 0 00-.58-.33 8.7 8.7 0 01-.68-.38 1.979 1.979 0 01-.58-.55 1.348 1.348 0 01-.24-.78c0-.373.14-.667.42-.88.287-.22.627-.33 1.02-.33.227 0 .46.05.7.15.24.1.377.15.41.15.08 0 .12-.067.12-.2h.23l.1 1.46h-.22c-.067-.28-.24-.553-.52-.82-.273-.267-.537-.4-.79-.4-.473 0-.71.173-.71.52 0 .12.13.26.39.42.26.153.543.303.85.45.307.147.59.357.85.63s.39.573.39.9c0 .413-.157.74-.47.98-.313.24-.716.36-1.21.36-.24 0-.483-.05-.73-.15-.247-.1-.383-.15-.41-.15-.08 0-.12.067-.12.2h-.24l-.1-1.53h.22c.067.267.267.54.6.82.34.273.627.41.86.41zm7.545-.3c.36.027.57.04.63.04v.23c-.127 0-.434.073-.92.22-.487.14-.807.21-.96.21v-.29c-.34.193-.68.29-1.02.29-1.287 0-1.93-.473-1.93-1.42v-2.67c-.06-.133-.27-.2-.63-.2v-.21h1.88v3.48c.006.073.023.16.05.26a.57.57 0 00.11.23.69.69 0 00.22.14c.1.033.22.05.36.05.326 0 .646-.09.96-.27v-3.48c-.06-.133-.27-.2-.63-.2v-.21h1.88v3.8zm1.613.6v-.21c.36 0 .57-.067.63-.2V36.4c-.36-.027-.57-.04-.63-.04v-.23c.127 0 .433-.07.92-.21.486-.147.806-.22.96-.22v5.89c.06.133.27.2.63.2V42h-2.51zm5.394-5.85v1.45h.86v.3h-.86v3.18c0 .207.036.367.11.48.073.107.21.16.41.16.12 0 .24-.057.36-.17a.94.94 0 00.26-.49l.24.12c-.14.613-.54.92-1.2.92-.52 0-.9-.117-1.14-.35-.234-.24-.35-.63-.35-1.17V37.9h-.7v-.3c.393 0 .736-.147 1.03-.44.293-.3.44-.637.44-1.01h.54zm3.455 2.19c.153 0 .23.137.23.41 0 .113-.057.2-.17.26a.758.758 0 01-.36.09.533.533 0 01-.36-.14.47.47 0 01-.15-.36c0-.34.167-.607.5-.8.34-.2.78-.3 1.32-.3.633 0 1.127.16 1.48.48.353.313.53.713.53 1.2v1.98c0 .213.033.37.1.47.073.1.16.15.26.15a.39.39 0 00.23-.07c.073-.047.11-.103.11-.17h.18c0 .36-.367.54-1.1.54-.34 0-.603-.12-.79-.36-.4.253-.863.38-1.39.38-1.113 0-1.67-.407-1.67-1.22 0-.167.057-.317.17-.45.12-.133.3-.247.54-.34a7.38 7.38 0 01.64-.22c.193-.053.457-.113.79-.18.333-.073.56-.127.68-.16 0-.627-.053-1.06-.16-1.3-.1-.247-.333-.37-.7-.37-.22 0-.42.047-.6.14-.173.087-.277.2-.31.34zm1.87 3.14c-.067-.18-.1-.38-.1-.6v-1.13c-.567.173-.94.317-1.12.43-.28.187-.42.427-.42.72 0 .307.063.527.19.66.133.133.283.2.45.2.293 0 .627-.093 1-.28zm2.8.52v-.21c.36 0 .57-.067.63-.2V38.2c-.36-.027-.57-.04-.63-.04v-.23c.126 0 .433-.07.92-.21.486-.147.806-.22.96-.22v.42c.333-.28.7-.42 1.1-.42.64 0 1.136.12 1.49.36.353.233.53.587.53 1.06v2.67c.06.133.27.2.63.2V42h-2.51v-.21c.36 0 .57-.067.63-.2v-2.74c0-.3-.07-.543-.21-.73-.134-.187-.34-.28-.62-.28-.414 0-.76.133-1.04.4v3.35c.06.133.27.2.63.2V42h-2.51zm8.438-5.85v1.45h.86v.3h-.86v3.18c0 .207.036.367.11.48.073.107.21.16.41.16.12 0 .24-.057.36-.17a.94.94 0 00.26-.49l.24.12c-.14.613-.54.92-1.2.92-.52 0-.9-.117-1.14-.35-.234-.24-.35-.63-.35-1.17V37.9h-.7v-.3c.393 0 .736-.147 1.03-.44.293-.3.44-.637.44-1.01h.54z" fill="#fff"/><defs><filter id="filter0_di" x=".781" y="3.629" width="59.337" height="25.798" filterUnits="userSpaceOnUse" color-interpolation-filters="sRGB"><feFlood flood-opacity="0" result="BackgroundImageFix"/><feColorMatrix in="SourceAlpha" values="0 0 0 0 0 0 0 0 0 0 0 0 0 0 0 0 0 0 127 0"/><feOffset dy="4"/><feGaussianBlur stdDeviation="2"/><feColorMatrix values="0 0 0 0 0 0 0 0 0 0 0 0 0 0 0 0 0 0 0.25 0"/><feBlend in2="BackgroundImageFix" result="effect1_dropShadow"/><feBlend in="SourceGraphic" in2="effect1_dropShadow" result="shape"/><feColorMatrix in="SourceAlpha" values="0 0 0 0 0 0 0 0 0 0 0 0 0 0 0 0 0 0 127 0" result="hardAlpha"/><feOffset dy="1"/><feGaussianBlur stdDeviation=".5"/><feComposite in2="hardAlpha" operator="arithmetic" k2="-1" k3="1"/><feColorMatrix values="0 0 0 0 0.181406 0 0 0 0 0.451546 0 0 0 0 0.5375 0 0 0 0.5 0"/><feBlend in2="shape" result="effect2_innerShadow"/></filter></defs></svg>