<svg width="103" height="43" viewBox="0 0 103 43" fill="none" xmlns="http://www.w3.org/2000/svg">
<rect x="4" width="99" height="24" fill="#4098B4"/>
<g filter="url(#filter0_di)">
<path d="M4.78125 4.93555V3.92236L8.39453 4.00781L13.8511 3.89795C14.9172 3.89795 15.7594 4.00781 16.3779 4.22754C16.9964 4.44727 17.5254 4.84603 17.9648 5.42383C18.4124 6.00163 18.6362 6.75033 18.6362 7.66992C18.6362 8.58952 18.4206 9.44401 17.9893 10.2334C17.5661 11.0228 16.8988 11.6738 15.9873 12.1865C15.084 12.6911 14.1156 12.9434 13.082 12.9434C12.8216 12.9434 12.5653 12.9312 12.313 12.9067C12.0688 12.8742 11.8247 12.8294 11.5806 12.7725C11.4992 12.5446 11.3527 12.2557 11.1411 11.9058L11.3975 11.6372C11.5765 11.6942 11.7433 11.7389 11.8979 11.7715C12.0607 11.7959 12.2072 11.8081 12.3374 11.8081C13.1268 11.8081 13.7778 11.5314 14.2905 10.978C14.8032 10.4165 15.0596 9.6027 15.0596 8.53662C15.0596 7.42171 14.791 6.5835 14.2539 6.02197C13.7168 5.46045 12.9681 5.17969 12.0078 5.17969C11.5521 5.17969 11.0435 5.23258 10.4819 5.33838C10.4412 5.84294 10.4168 6.5835 10.4087 7.56006L10.3721 9.95264V14.5791C10.3721 15.7184 10.3883 16.8984 10.4209 18.1191C10.4453 18.8271 10.4901 19.2747 10.5552 19.4619C10.5877 19.5433 10.6406 19.6165 10.7139 19.6816C10.7952 19.7386 10.9377 19.7834 11.1411 19.8159L12.7891 19.9258V21C10.7057 20.9512 9.13916 20.9268 8.08936 20.9268C6.93376 20.9268 5.83105 20.9512 4.78125 21V19.9258C5.68457 19.9095 6.25423 19.8403 6.49023 19.7183C6.56348 19.6776 6.62044 19.6165 6.66113 19.5352C6.7181 19.4212 6.76286 19.1242 6.79541 18.644C6.88493 17.342 6.92969 15.8934 6.92969 14.2983V9.98926L6.88086 7.69434C6.86458 6.70964 6.84424 6.09521 6.81982 5.85107C6.80355 5.60693 6.76693 5.43197 6.70996 5.32617C6.67741 5.26107 6.62044 5.2041 6.53906 5.15527C6.46582 5.10645 6.32747 5.06169 6.12402 5.021L4.78125 4.93555ZM33.874 15.0674H32.8975C32.873 14.0501 32.8039 13.4357 32.6899 13.2241C32.633 13.1183 32.4865 13.041 32.2505 12.9922C31.6483 12.8864 30.6961 12.8335 29.394 12.8335C29.2069 12.8335 28.8813 12.8376 28.4175 12.8457V14.2007C28.4175 16.1294 28.4378 17.4844 28.4785 18.2656C28.5273 19.0387 28.5924 19.4904 28.6738 19.6206C28.7308 19.7101 28.8325 19.7834 28.979 19.8403C29.1255 19.8892 29.7643 19.9543 30.8955 20.0356V21L26.1104 20.9146C25.4186 20.9146 24.3241 20.943 22.8267 21V19.9868C23.7625 19.9705 24.3037 19.9339 24.4502 19.877C24.5234 19.8525 24.5845 19.8078 24.6333 19.7427C24.7065 19.645 24.7635 19.4334 24.8042 19.1079C24.8286 18.9207 24.8612 18.3348 24.9019 17.3501C24.9425 16.3573 24.9629 15.6452 24.9629 15.2139V10.1602C24.9629 10.0462 24.9263 8.9069 24.853 6.74219C24.8368 6.11556 24.792 5.67204 24.7188 5.41162C24.6943 5.3221 24.6536 5.257 24.5967 5.21631C24.5479 5.16748 24.4339 5.12272 24.2549 5.08203C24.084 5.04134 23.6079 4.99658 22.8267 4.94775V3.92236L27.1602 3.99561L33.0317 3.89795C33.8537 3.89795 34.6309 3.93864 35.3633 4.02002L35.4731 4.19092C35.3836 4.65479 35.3063 5.24479 35.2412 5.96094C35.1761 6.67708 35.1395 7.30371 35.1313 7.84082H34.1304C34.1304 7.64551 34.11 7.20605 34.0693 6.52246C34.0531 6.16439 34.0286 5.94873 33.9961 5.87549C33.9717 5.81852 33.9351 5.77783 33.8862 5.75342C33.7397 5.65576 33.3979 5.56217 32.8608 5.47266C32.3319 5.375 31.7093 5.32617 30.9932 5.32617C30.8548 5.32617 30.4683 5.33838 29.8335 5.36279C29.2069 5.38721 28.7796 5.40755 28.5518 5.42383C28.4622 6.23763 28.4175 7.70654 28.4175 9.83057V11.5396C29.4591 11.5721 30.1631 11.5884 30.5293 11.5884C31.5872 11.5884 32.2546 11.5396 32.5312 11.4419C32.637 11.4093 32.7144 11.3158 32.7632 11.1611C32.8364 10.9577 32.8812 10.4938 32.8975 9.76953H33.9595C33.9025 11.153 33.874 12.9189 33.874 15.0674ZM56.1187 18.7905L55.5571 20.0234C54.5399 20.5605 53.6243 20.9268 52.8105 21.1221C52.0049 21.3255 50.9958 21.4272 49.7832 21.4272C48.0579 21.4272 46.5321 21.1546 45.2056 20.6094C44.1639 20.1699 43.2809 19.5881 42.5566 18.8638C41.8324 18.1395 41.2749 17.3542 40.8843 16.5078C40.2902 15.2301 39.9932 13.8426 39.9932 12.3452C39.9932 9.78174 40.868 7.69027 42.6177 6.0708C44.3755 4.4432 46.8535 3.62939 50.0518 3.62939C51.1504 3.62939 52.1351 3.71077 53.0059 3.87354C53.8848 4.0363 54.902 4.3252 56.0576 4.74023L56.1187 4.89893C55.9884 5.28141 55.8867 5.76156 55.8135 6.33936C55.6914 7.25895 55.6141 8.10938 55.5815 8.89062H54.6294C54.6131 7.99544 54.5724 7.2793 54.5073 6.74219C53.9621 6.17253 53.3477 5.74935 52.6641 5.47266C51.9886 5.18783 51.1219 5.04541 50.064 5.04541C48.1515 5.04541 46.6216 5.65169 45.4741 6.86426C44.3267 8.06868 43.7529 9.75326 43.7529 11.918C43.7529 13.2282 43.9442 14.3716 44.3267 15.3481C44.7173 16.3247 45.234 17.1344 45.877 17.7773C46.5199 18.4121 47.1668 18.876 47.8179 19.1689C48.7049 19.5596 49.7791 19.7549 51.0405 19.7549C51.8706 19.7549 52.6559 19.6613 53.3965 19.4741C54.137 19.2869 54.9427 18.9655 55.8135 18.5098L56.1187 18.7905Z" fill="white"/>
</g>
<path d="M4.36 32V31.79C4.72 31.79 4.93 31.7233 4.99 31.59V26.56C4.93 26.4267 4.72 26.36 4.36 26.36V26.15H7.02C7.84 26.15 8.46333 26.3067 8.89 26.62C9.32333 26.9333 9.54 27.2833 9.54 27.67C9.54 28.17 9.34 28.5733 8.94 28.88C8.54 29.1867 7.94 29.34 7.14 29.34H6.26V31.59C6.32 31.7233 6.53 31.79 6.89 31.79V32H4.36ZM6.26 26.49V29H6.79C7.30333 29 7.66333 28.9 7.87 28.7C8.08333 28.4933 8.19 28.1533 8.19 27.68C8.19 26.8867 7.68333 26.49 6.67 26.49H6.26ZM11.8471 29.59C11.8604 30.17 11.9904 30.67 12.2371 31.09C12.4904 31.51 12.8104 31.72 13.1971 31.72C13.7771 31.72 14.2438 31.5 14.5971 31.06L14.8371 31.18C14.6438 31.5 14.3904 31.7333 14.0771 31.88C13.7704 32.0267 13.3638 32.1 12.8571 32.1C12.5971 32.1 12.3438 32.0633 12.0971 31.99C11.8504 31.91 11.6038 31.7833 11.3571 31.61C11.1171 31.43 10.9204 31.1667 10.7671 30.82C10.6204 30.4733 10.5471 30.06 10.5471 29.58C10.5471 29 10.7504 28.51 11.1571 28.11C11.5704 27.7033 12.1038 27.5 12.7571 27.5C13.4704 27.5 14.0238 27.7033 14.4171 28.11C14.8104 28.51 15.0071 29.0033 15.0071 29.59H11.8471ZM11.8571 29.28H13.6771C13.6371 28.8067 13.5538 28.4433 13.4271 28.19C13.3071 27.93 13.1104 27.8 12.8371 27.8C12.5971 27.8 12.3804 27.9233 12.1871 28.17C12.0004 28.41 11.8904 28.78 11.8571 29.28ZM16.1869 32V31.79C16.5469 31.79 16.7569 31.7233 16.8169 31.59V28.2C16.4569 28.1733 16.2469 28.16 16.1869 28.16V27.93C16.3135 27.93 16.6202 27.86 17.1069 27.72C17.5935 27.5733 17.9135 27.5 18.0669 27.5V27.92C18.4135 27.64 18.7435 27.5 19.0569 27.5C19.8835 27.5 20.2969 27.7 20.2969 28.1C20.2969 28.26 20.2469 28.3867 20.1469 28.48C20.0535 28.5733 19.9369 28.62 19.7969 28.62C19.6435 28.62 19.5269 28.58 19.4469 28.5C19.3669 28.42 19.3169 28.33 19.2969 28.23C19.2769 28.13 19.2369 28.04 19.1769 27.96C19.1235 27.88 19.0435 27.84 18.9369 27.84C18.6835 27.84 18.3935 27.98 18.0669 28.26V31.59C18.1269 31.7233 18.3369 31.79 18.6969 31.79V32H16.1869ZM23.0623 31.7C23.5157 31.7 23.7423 31.4933 23.7423 31.08C23.7423 30.9667 23.6623 30.8567 23.5023 30.75C23.3423 30.6367 23.149 30.5267 22.9223 30.42C22.6957 30.3067 22.469 30.18 22.2423 30.04C22.0157 29.9 21.8223 29.7167 21.6623 29.49C21.5023 29.2567 21.4223 28.9967 21.4223 28.71C21.4223 28.3367 21.5623 28.0433 21.8423 27.83C22.129 27.61 22.469 27.5 22.8623 27.5C23.089 27.5 23.3223 27.55 23.5623 27.65C23.8023 27.75 23.939 27.8 23.9723 27.8C24.0523 27.8 24.0923 27.7333 24.0923 27.6H24.3223L24.4223 29.06H24.2023C24.1357 28.78 23.9623 28.5067 23.6823 28.24C23.409 27.9733 23.1457 27.84 22.8923 27.84C22.419 27.84 22.1823 28.0133 22.1823 28.36C22.1823 28.48 22.3123 28.62 22.5723 28.78C22.8323 28.9333 23.1157 29.0833 23.4223 29.23C23.729 29.3767 24.0123 29.5867 24.2723 29.86C24.5323 30.1333 24.6623 30.4333 24.6623 30.76C24.6623 31.1733 24.5057 31.5 24.1923 31.74C23.879 31.98 23.4757 32.1 22.9823 32.1C22.7423 32.1 22.499 32.05 22.2523 31.95C22.0057 31.85 21.869 31.8 21.8423 31.8C21.7623 31.8 21.7223 31.8667 21.7223 32H21.4823L21.3823 30.47H21.6023C21.669 30.7367 21.869 31.01 22.2023 31.29C22.5423 31.5633 22.829 31.7 23.0623 31.7ZM27.297 29.52C27.297 30.3067 27.4003 30.8833 27.607 31.25C27.8203 31.6167 28.1436 31.8 28.577 31.8C28.877 31.8 29.107 31.6433 29.267 31.33C29.427 31.01 29.507 30.59 29.507 30.07C29.507 29.2567 29.4103 28.6767 29.217 28.33C29.0303 27.9833 28.6936 27.81 28.207 27.81C27.9203 27.81 27.697 27.9767 27.537 28.31C27.377 28.6433 27.297 29.0467 27.297 29.52ZM28.447 32.1C27.6936 32.1 27.0936 31.88 26.647 31.44C26.207 31 25.987 30.4267 25.987 29.72C25.987 29.0867 26.187 28.56 26.587 28.14C26.9936 27.7133 27.5903 27.5 28.377 27.5C29.1703 27.5 29.7736 27.71 30.187 28.13C30.607 28.55 30.817 29.12 30.817 29.84C30.817 30.48 30.617 31.0167 30.217 31.45C29.817 31.8833 29.227 32.1 28.447 32.1ZM32.0662 32V31.79C32.4262 31.79 32.6362 31.7233 32.6962 31.59V28.2C32.3362 28.1733 32.1262 28.16 32.0662 28.16V27.93C32.1928 27.93 32.4995 27.86 32.9862 27.72C33.4728 27.5733 33.7928 27.5 33.9462 27.5V27.92C34.2795 27.64 34.6462 27.5 35.0462 27.5C35.6862 27.5 36.1828 27.62 36.5362 27.86C36.8895 28.0933 37.0662 28.4467 37.0662 28.92V31.59C37.1262 31.7233 37.3362 31.79 37.6962 31.79V32H35.1862V31.79C35.5462 31.79 35.7562 31.7233 35.8162 31.59V28.85C35.8162 28.55 35.7462 28.3067 35.6062 28.12C35.4728 27.9333 35.2662 27.84 34.9862 27.84C34.5728 27.84 34.2262 27.9733 33.9462 28.24V31.59C34.0062 31.7233 34.2162 31.79 34.5762 31.79V32H32.0662ZM39.793 28.34C39.9463 28.34 40.023 28.4767 40.023 28.75C40.023 28.8633 39.9663 28.95 39.853 29.01C39.7396 29.07 39.6196 29.1 39.493 29.1C39.3596 29.1 39.2396 29.0533 39.133 28.96C39.033 28.8667 38.983 28.7467 38.983 28.6C38.983 28.26 39.1496 27.9933 39.483 27.8C39.823 27.6 40.263 27.5 40.803 27.5C41.4363 27.5 41.9296 27.66 42.283 27.98C42.6363 28.2933 42.813 28.6933 42.813 29.18V31.16C42.813 31.3733 42.8463 31.53 42.913 31.63C42.9863 31.73 43.073 31.78 43.173 31.78C43.2596 31.78 43.3363 31.7567 43.403 31.71C43.4763 31.6633 43.513 31.6067 43.513 31.54H43.693C43.693 31.9 43.3263 32.08 42.593 32.08C42.253 32.08 41.9896 31.96 41.803 31.72C41.403 31.9733 40.9396 32.1 40.413 32.1C39.2996 32.1 38.743 31.6933 38.743 30.88C38.743 30.7133 38.7996 30.5633 38.913 30.43C39.033 30.2967 39.213 30.1833 39.453 30.09C39.693 29.9967 39.9063 29.9233 40.093 29.87C40.2863 29.8167 40.5496 29.7567 40.883 29.69C41.2163 29.6167 41.443 29.5633 41.563 29.53C41.563 28.9033 41.5096 28.47 41.403 28.23C41.303 27.9833 41.0696 27.86 40.703 27.86C40.483 27.86 40.283 27.9067 40.103 28C39.9296 28.0867 39.8263 28.2 39.793 28.34ZM41.663 31.48C41.5963 31.3 41.563 31.1 41.563 30.88V29.75C40.9963 29.9233 40.623 30.0667 40.443 30.18C40.163 30.3667 40.023 30.6067 40.023 30.9C40.023 31.2067 40.0863 31.4267 40.213 31.56C40.3463 31.6933 40.4963 31.76 40.663 31.76C40.9563 31.76 41.2896 31.6667 41.663 31.48ZM44.3623 32V31.79C44.7223 31.79 44.9323 31.7233 44.9923 31.59V26.4C44.6323 26.3733 44.4223 26.36 44.3623 26.36V26.13C44.4889 26.13 44.7956 26.06 45.2823 25.92C45.7689 25.7733 46.0889 25.7 46.2423 25.7V31.59C46.3023 31.7233 46.5123 31.79 46.8723 31.79V32H44.3623ZM54.2799 32V31.79C54.6399 31.79 54.8499 31.7233 54.9099 31.59V26.56C54.8499 26.4267 54.6399 26.36 54.2799 26.36V26.15H58.4099V27.12H58.1999C58.1999 26.76 58.1333 26.55 57.9999 26.49H56.1799V28.79H57.3299C57.4633 28.73 57.5299 28.52 57.5299 28.16H57.7399V29.76H57.5299C57.5299 29.4 57.4633 29.19 57.3299 29.13H56.1799V31.59C56.2399 31.7233 56.4499 31.79 56.8099 31.79V32H54.2799ZM59.3912 32V31.79C59.7512 31.79 59.9612 31.7233 60.0212 31.59V28.2C59.6745 28.1733 59.4645 28.16 59.3912 28.16V27.93C59.5178 27.93 59.8245 27.86 60.3112 27.72C60.7978 27.5733 61.1178 27.5 61.2712 27.5V31.59C61.3312 31.7233 61.5412 31.79 61.9012 31.79V32H59.3912ZM60.6212 26.86C60.4612 26.86 60.2978 26.8033 60.1312 26.69C59.9712 26.57 59.8912 26.43 59.8912 26.27C59.8912 26.13 59.9645 26 60.1112 25.88C60.2645 25.76 60.4245 25.7 60.5912 25.7C60.7512 25.7 60.9112 25.76 61.0712 25.88C61.2378 25.9933 61.3212 26.1333 61.3212 26.3C61.3212 26.44 61.2445 26.57 61.0912 26.69C60.9445 26.8033 60.7878 26.86 60.6212 26.86ZM62.9818 32V31.79C63.3418 31.79 63.5518 31.7233 63.6118 31.59V28.2C63.2518 28.1733 63.0418 28.16 62.9818 28.16V27.93C63.1085 27.93 63.4151 27.86 63.9018 27.72C64.3885 27.5733 64.7085 27.5 64.8618 27.5V27.92C65.1951 27.64 65.5618 27.5 65.9618 27.5C66.6018 27.5 67.0985 27.62 67.4518 27.86C67.8051 28.0933 67.9818 28.4467 67.9818 28.92V31.59C68.0418 31.7233 68.2518 31.79 68.6118 31.79V32H66.1018V31.79C66.4618 31.79 66.6718 31.7233 66.7318 31.59V28.85C66.7318 28.55 66.6618 28.3067 66.5218 28.12C66.3885 27.9333 66.1818 27.84 65.9018 27.84C65.4885 27.84 65.1418 27.9733 64.8618 28.24V31.59C64.9218 31.7233 65.1318 31.79 65.4918 31.79V32H62.9818ZM70.7086 28.34C70.8619 28.34 70.9386 28.4767 70.9386 28.75C70.9386 28.8633 70.8819 28.95 70.7686 29.01C70.6553 29.07 70.5353 29.1 70.4086 29.1C70.2753 29.1 70.1553 29.0533 70.0486 28.96C69.9486 28.8667 69.8986 28.7467 69.8986 28.6C69.8986 28.26 70.0653 27.9933 70.3986 27.8C70.7386 27.6 71.1786 27.5 71.7186 27.5C72.3519 27.5 72.8453 27.66 73.1986 27.98C73.5519 28.2933 73.7286 28.6933 73.7286 29.18V31.16C73.7286 31.3733 73.7619 31.53 73.8286 31.63C73.9019 31.73 73.9886 31.78 74.0886 31.78C74.1753 31.78 74.2519 31.7567 74.3186 31.71C74.3919 31.6633 74.4286 31.6067 74.4286 31.54H74.6086C74.6086 31.9 74.2419 32.08 73.5086 32.08C73.1686 32.08 72.9053 31.96 72.7186 31.72C72.3186 31.9733 71.8553 32.1 71.3286 32.1C70.2153 32.1 69.6586 31.6933 69.6586 30.88C69.6586 30.7133 69.7153 30.5633 69.8286 30.43C69.9486 30.2967 70.1286 30.1833 70.3686 30.09C70.6086 29.9967 70.8219 29.9233 71.0086 29.87C71.2019 29.8167 71.4653 29.7567 71.7986 29.69C72.1319 29.6167 72.3586 29.5633 72.4786 29.53C72.4786 28.9033 72.4253 28.47 72.3186 28.23C72.2186 27.9833 71.9853 27.86 71.6186 27.86C71.3986 27.86 71.1986 27.9067 71.0186 28C70.8453 28.0867 70.7419 28.2 70.7086 28.34ZM72.5786 31.48C72.5119 31.3 72.4786 31.1 72.4786 30.88V29.75C71.9119 29.9233 71.5386 30.0667 71.3586 30.18C71.0786 30.3667 70.9386 30.6067 70.9386 30.9C70.9386 31.2067 71.0019 31.4267 71.1286 31.56C71.2619 31.6933 71.4119 31.76 71.5786 31.76C71.8719 31.76 72.2053 31.6667 72.5786 31.48ZM75.3779 32V31.79C75.7379 31.79 75.9479 31.7233 76.0079 31.59V28.2C75.6479 28.1733 75.4379 28.16 75.3779 28.16V27.93C75.5046 27.93 75.8112 27.86 76.2979 27.72C76.7846 27.5733 77.1046 27.5 77.2579 27.5V27.92C77.5912 27.64 77.9579 27.5 78.3579 27.5C78.9979 27.5 79.4946 27.62 79.8479 27.86C80.2012 28.0933 80.3779 28.4467 80.3779 28.92V31.59C80.4379 31.7233 80.6479 31.79 81.0079 31.79V32H78.4979V31.79C78.8579 31.79 79.0679 31.7233 79.1279 31.59V28.85C79.1279 28.55 79.0579 28.3067 78.9179 28.12C78.7846 27.9333 78.5779 27.84 78.2979 27.84C77.8846 27.84 77.5379 27.9733 77.2579 28.24V31.59C77.3179 31.7233 77.5279 31.79 77.8879 31.79V32H75.3779ZM84.5056 27.8C84.1923 27.8 83.9256 27.96 83.7056 28.28C83.4856 28.5933 83.3756 29.0133 83.3756 29.54C83.3756 30.1333 83.4956 30.6467 83.7356 31.08C83.9756 31.5067 84.289 31.72 84.6756 31.72C85.2356 31.72 85.659 31.48 85.9456 31L86.3156 31.18C86.1223 31.5 85.869 31.7333 85.5556 31.88C85.249 32.0267 84.8423 32.1 84.3356 32.1C84.1356 32.1 83.939 32.0767 83.7456 32.03C83.5523 31.99 83.3523 31.91 83.1456 31.79C82.939 31.67 82.759 31.52 82.6056 31.34C82.4523 31.16 82.3256 30.92 82.2256 30.62C82.1256 30.3133 82.0756 29.9667 82.0756 29.58C82.0756 29.0067 82.2956 28.5167 82.7356 28.11C83.1756 27.7033 83.7323 27.5 84.4056 27.5C84.9456 27.5 85.379 27.5933 85.7056 27.78C86.039 27.96 86.2056 28.22 86.2056 28.56C86.2056 28.7267 86.1623 28.8633 86.0756 28.97C85.9956 29.0767 85.8723 29.13 85.7056 29.13C85.5456 29.13 85.4156 29.0933 85.3156 29.02C85.2223 28.94 85.1756 28.8367 85.1756 28.71C85.1756 28.57 85.209 28.4667 85.2756 28.4C85.349 28.3333 85.4323 28.3 85.5256 28.3C85.439 27.9667 85.099 27.8 84.5056 27.8ZM87.5201 32V31.79C87.8801 31.79 88.0901 31.7233 88.1501 31.59V28.2C87.8034 28.1733 87.5934 28.16 87.5201 28.16V27.93C87.6467 27.93 87.9534 27.86 88.4401 27.72C88.9267 27.5733 89.2467 27.5 89.4001 27.5V31.59C89.4601 31.7233 89.6701 31.79 90.0301 31.79V32H87.5201ZM88.7501 26.86C88.5901 26.86 88.4267 26.8033 88.2601 26.69C88.1001 26.57 88.0201 26.43 88.0201 26.27C88.0201 26.13 88.0934 26 88.2401 25.88C88.3934 25.76 88.5534 25.7 88.7201 25.7C88.8801 25.7 89.0401 25.76 89.2001 25.88C89.3667 25.9933 89.4501 26.1333 89.4501 26.3C89.4501 26.44 89.3734 26.57 89.2201 26.69C89.0734 26.8033 88.9167 26.86 88.7501 26.86ZM92.1707 28.34C92.324 28.34 92.4007 28.4767 92.4007 28.75C92.4007 28.8633 92.344 28.95 92.2307 29.01C92.1174 29.07 91.9974 29.1 91.8707 29.1C91.7374 29.1 91.6174 29.0533 91.5107 28.96C91.4107 28.8667 91.3607 28.7467 91.3607 28.6C91.3607 28.26 91.5274 27.9933 91.8607 27.8C92.2007 27.6 92.6407 27.5 93.1807 27.5C93.814 27.5 94.3074 27.66 94.6607 27.98C95.014 28.2933 95.1907 28.6933 95.1907 29.18V31.16C95.1907 31.3733 95.224 31.53 95.2907 31.63C95.364 31.73 95.4507 31.78 95.5507 31.78C95.6374 31.78 95.714 31.7567 95.7807 31.71C95.854 31.6633 95.8907 31.6067 95.8907 31.54H96.0707C96.0707 31.9 95.704 32.08 94.9707 32.08C94.6307 32.08 94.3674 31.96 94.1807 31.72C93.7807 31.9733 93.3174 32.1 92.7907 32.1C91.6774 32.1 91.1207 31.6933 91.1207 30.88C91.1207 30.7133 91.1774 30.5633 91.2907 30.43C91.4107 30.2967 91.5907 30.1833 91.8307 30.09C92.0707 29.9967 92.284 29.9233 92.4707 29.87C92.664 29.8167 92.9274 29.7567 93.2607 29.69C93.594 29.6167 93.8207 29.5633 93.9407 29.53C93.9407 28.9033 93.8874 28.47 93.7807 28.23C93.6807 27.9833 93.4474 27.86 93.0807 27.86C92.8607 27.86 92.6607 27.9067 92.4807 28C92.3074 28.0867 92.204 28.2 92.1707 28.34ZM94.0407 31.48C93.974 31.3 93.9407 31.1 93.9407 30.88V29.75C93.374 29.9233 93.0007 30.0667 92.8207 30.18C92.5407 30.3667 92.4007 30.6067 92.4007 30.9C92.4007 31.2067 92.464 31.4267 92.5907 31.56C92.724 31.6933 92.874 31.76 93.0407 31.76C93.334 31.76 93.6674 31.6667 94.0407 31.48ZM96.74 32V31.79C97.1 31.79 97.31 31.7233 97.37 31.59V26.4C97.01 26.3733 96.8 26.36 96.74 26.36V26.13C96.8667 26.13 97.1733 26.06 97.66 25.92C98.1467 25.7733 98.4667 25.7 98.62 25.7V31.59C98.68 31.7233 98.89 31.79 99.25 31.79V32H96.74ZM7.5 36.39C6.94 36.39 6.50667 36.62 6.2 37.08C5.9 37.54 5.75 38.16 5.75 38.94C5.75 39.8467 5.91333 40.5433 6.24 41.03C6.56667 41.5167 7 41.76 7.54 41.76C7.86667 41.76 8.16333 41.65 8.43 41.43C8.70333 41.2033 8.89 40.9533 8.99 40.68L9.4 40.8C9.24667 41.1667 9.00333 41.4767 8.67 41.73C8.34333 41.9767 7.9 42.1 7.34 42.1C6.44667 42.1 5.72667 41.81 5.18 41.23C4.63333 40.65 4.36 39.96 4.36 39.16C4.36 38.2333 4.67333 37.4833 5.3 36.91C5.92667 36.3367 6.65667 36.05 7.49 36.05C7.68333 36.05 7.92333 36.1 8.21 36.2C8.49667 36.3 8.66 36.35 8.7 36.35C8.78 36.35 8.82 36.2833 8.82 36.15H9.05L9.13 37.56H8.91C8.87 37.2867 8.69667 37.0233 8.39 36.77C8.08333 36.5167 7.78667 36.39 7.5 36.39ZM11.8571 39.52C11.8571 40.3067 11.9604 40.8833 12.1671 41.25C12.3804 41.6167 12.7038 41.8 13.1371 41.8C13.4371 41.8 13.6671 41.6433 13.8271 41.33C13.9871 41.01 14.0671 40.59 14.0671 40.07C14.0671 39.2567 13.9704 38.6767 13.7771 38.33C13.5904 37.9833 13.2538 37.81 12.7671 37.81C12.4804 37.81 12.2571 37.9767 12.0971 38.31C11.9371 38.6433 11.8571 39.0467 11.8571 39.52ZM13.0071 42.1C12.2538 42.1 11.6538 41.88 11.2071 41.44C10.7671 41 10.5471 40.4267 10.5471 39.72C10.5471 39.0867 10.7471 38.56 11.1471 38.14C11.5538 37.7133 12.1504 37.5 12.9371 37.5C13.7304 37.5 14.3338 37.71 14.7471 38.13C15.1671 38.55 15.3771 39.12 15.3771 39.84C15.3771 40.48 15.1771 41.0167 14.7771 41.45C14.3771 41.8833 13.7871 42.1 13.0071 42.1ZM16.6263 42V41.79C16.9863 41.79 17.1963 41.7233 17.2563 41.59V38.2C16.8963 38.1733 16.6863 38.16 16.6263 38.16V37.93C16.753 37.93 17.0597 37.86 17.5463 37.72C18.033 37.5733 18.353 37.5 18.5063 37.5V37.92C18.8397 37.64 19.2063 37.5 19.6063 37.5C20.2463 37.5 20.743 37.62 21.0963 37.86C21.4497 38.0933 21.6263 38.4467 21.6263 38.92V41.59C21.6863 41.7233 21.8963 41.79 22.2563 41.79V42H19.7463V41.79C20.1063 41.79 20.3163 41.7233 20.3763 41.59V38.85C20.3763 38.55 20.3063 38.3067 20.1663 38.12C20.033 37.9333 19.8263 37.84 19.5463 37.84C19.133 37.84 18.7863 37.9733 18.5063 38.24V41.59C18.5663 41.7233 18.7763 41.79 19.1363 41.79V42H16.6263ZM25.1131 41.7C25.5665 41.7 25.7931 41.4933 25.7931 41.08C25.7931 40.9667 25.7131 40.8567 25.5531 40.75C25.3931 40.6367 25.1998 40.5267 24.9731 40.42C24.7465 40.3067 24.5198 40.18 24.2931 40.04C24.0665 39.9 23.8731 39.7167 23.7131 39.49C23.5531 39.2567 23.4731 38.9967 23.4731 38.71C23.4731 38.3367 23.6131 38.0433 23.8931 37.83C24.1798 37.61 24.5198 37.5 24.9131 37.5C25.1398 37.5 25.3731 37.55 25.6131 37.65C25.8531 37.75 25.9898 37.8 26.0231 37.8C26.1031 37.8 26.1431 37.7333 26.1431 37.6H26.3731L26.4731 39.06H26.2531C26.1865 38.78 26.0131 38.5067 25.7331 38.24C25.4598 37.9733 25.1965 37.84 24.9431 37.84C24.4698 37.84 24.2331 38.0133 24.2331 38.36C24.2331 38.48 24.3631 38.62 24.6231 38.78C24.8831 38.9333 25.1665 39.0833 25.4731 39.23C25.7798 39.3767 26.0631 39.5867 26.3231 39.86C26.5831 40.1333 26.7131 40.4333 26.7131 40.76C26.7131 41.1733 26.5565 41.5 26.2431 41.74C25.9298 41.98 25.5265 42.1 25.0331 42.1C24.7931 42.1 24.5498 42.05 24.3031 41.95C24.0565 41.85 23.9198 41.8 23.8931 41.8C23.8131 41.8 23.7731 41.8667 23.7731 42H23.5331L23.4331 40.47H23.6531C23.7198 40.7367 23.9198 41.01 24.2531 41.29C24.5931 41.5633 24.8798 41.7 25.1131 41.7ZM32.6577 41.4C33.0177 41.4267 33.2277 41.44 33.2877 41.44V41.67C33.1611 41.67 32.8544 41.7433 32.3677 41.89C31.8811 42.03 31.5611 42.1 31.4077 42.1V41.81C31.0677 42.0033 30.7277 42.1 30.3877 42.1C29.1011 42.1 28.4577 41.6267 28.4577 40.68V38.01C28.3977 37.8767 28.1877 37.81 27.8277 37.81V37.6H29.7077V40.75C29.7077 40.89 29.7077 41 29.7077 41.08C29.7144 41.1533 29.7311 41.24 29.7577 41.34C29.7844 41.44 29.8211 41.5167 29.8677 41.57C29.9211 41.6233 29.9944 41.67 30.0877 41.71C30.1877 41.7433 30.3077 41.76 30.4477 41.76C30.7744 41.76 31.0944 41.67 31.4077 41.49V38.01C31.3477 37.8767 31.1377 37.81 30.7777 37.81V37.6H32.6577V41.4ZM34.2709 42V41.79C34.6309 41.79 34.8409 41.7233 34.9009 41.59V36.4C34.5409 36.3733 34.3309 36.36 34.2709 36.36V36.13C34.3975 36.13 34.7042 36.06 35.1909 35.92C35.6775 35.7733 35.9975 35.7 36.1509 35.7V41.59C36.2109 41.7233 36.4209 41.79 36.7809 41.79V42H34.2709ZM39.6648 36.15V37.6H40.5248V37.9H39.6648V41.08C39.6648 41.2867 39.7014 41.4467 39.7748 41.56C39.8481 41.6667 39.9848 41.72 40.1848 41.72C40.3048 41.72 40.4248 41.6633 40.5448 41.55C40.6714 41.43 40.7581 41.2667 40.8048 41.06L41.0448 41.18C40.9048 41.7933 40.5048 42.1 39.8448 42.1C39.3248 42.1 38.9448 41.9833 38.7048 41.75C38.4714 41.51 38.3548 41.12 38.3548 40.58V37.9H37.6548V37.6C38.0481 37.6 38.3914 37.4533 38.6848 37.16C38.9781 36.86 39.1248 36.5233 39.1248 36.15H39.6648ZM43.1199 38.34C43.2733 38.34 43.3499 38.4767 43.3499 38.75C43.3499 38.8633 43.2933 38.95 43.1799 39.01C43.0666 39.07 42.9466 39.1 42.8199 39.1C42.6866 39.1 42.5666 39.0533 42.4599 38.96C42.3599 38.8667 42.3099 38.7467 42.3099 38.6C42.3099 38.26 42.4766 37.9933 42.8099 37.8C43.1499 37.6 43.5899 37.5 44.1299 37.5C44.7633 37.5 45.2566 37.66 45.6099 37.98C45.9633 38.2933 46.1399 38.6933 46.1399 39.18V41.16C46.1399 41.3733 46.1733 41.53 46.2399 41.63C46.3133 41.73 46.3999 41.78 46.4999 41.78C46.5866 41.78 46.6633 41.7567 46.7299 41.71C46.8033 41.6633 46.8399 41.6067 46.8399 41.54H47.0199C47.0199 41.9 46.6533 42.08 45.9199 42.08C45.5799 42.08 45.3166 41.96 45.1299 41.72C44.7299 41.9733 44.2666 42.1 43.7399 42.1C42.6266 42.1 42.0699 41.6933 42.0699 40.88C42.0699 40.7133 42.1266 40.5633 42.2399 40.43C42.3599 40.2967 42.5399 40.1833 42.7799 40.09C43.0199 39.9967 43.2333 39.9233 43.4199 39.87C43.6133 39.8167 43.8766 39.7567 44.2099 39.69C44.5433 39.6167 44.7699 39.5633 44.8899 39.53C44.8899 38.9033 44.8366 38.47 44.7299 38.23C44.6299 37.9833 44.3966 37.86 44.0299 37.86C43.8099 37.86 43.6099 37.9067 43.4299 38C43.2566 38.0867 43.1533 38.2 43.1199 38.34ZM44.9899 41.48C44.9233 41.3 44.8899 41.1 44.8899 40.88V39.75C44.3233 39.9233 43.9499 40.0667 43.7699 40.18C43.4899 40.3667 43.3499 40.6067 43.3499 40.9C43.3499 41.2067 43.4133 41.4267 43.5399 41.56C43.6733 41.6933 43.8233 41.76 43.9899 41.76C44.2833 41.76 44.6166 41.6667 44.9899 41.48ZM47.7892 42V41.79C48.1492 41.79 48.3592 41.7233 48.4192 41.59V38.2C48.0592 38.1733 47.8492 38.16 47.7892 38.16V37.93C47.9159 37.93 48.2226 37.86 48.7092 37.72C49.1959 37.5733 49.5159 37.5 49.6692 37.5V37.92C50.0026 37.64 50.3692 37.5 50.7692 37.5C51.4092 37.5 51.9059 37.62 52.2592 37.86C52.6126 38.0933 52.7892 38.4467 52.7892 38.92V41.59C52.8492 41.7233 53.0592 41.79 53.4192 41.79V42H50.9092V41.79C51.2692 41.79 51.4792 41.7233 51.5392 41.59V38.85C51.5392 38.55 51.4692 38.3067 51.3292 38.12C51.1959 37.9333 50.9892 37.84 50.7092 37.84C50.2959 37.84 49.9492 37.9733 49.6692 38.24V41.59C49.7292 41.7233 49.9392 41.79 50.2992 41.79V42H47.7892ZM56.2277 36.15V37.6H57.0877V37.9H56.2277V41.08C56.2277 41.2867 56.2643 41.4467 56.3377 41.56C56.411 41.6667 56.5477 41.72 56.7477 41.72C56.8677 41.72 56.9877 41.6633 57.1077 41.55C57.2343 41.43 57.321 41.2667 57.3677 41.06L57.6077 41.18C57.4677 41.7933 57.0677 42.1 56.4077 42.1C55.8877 42.1 55.5077 41.9833 55.2677 41.75C55.0343 41.51 54.9177 41.12 54.9177 40.58V37.9H54.2177V37.6C54.611 37.6 54.9543 37.4533 55.2477 37.16C55.541 36.86 55.6877 36.5233 55.6877 36.15H56.2277Z" fill="white"/>
<defs>
<filter id="filter0_di" x="0.78125" y="3.62939" width="59.3374" height="25.7979" filterUnits="userSpaceOnUse" color-interpolation-filters="sRGB">
<feFlood flood-opacity="0" result="BackgroundImageFix"/>
<feColorMatrix in="SourceAlpha" type="matrix" values="0 0 0 0 0 0 0 0 0 0 0 0 0 0 0 0 0 0 127 0"/>
<feOffset dy="4"/>
<feGaussianBlur stdDeviation="2"/>
<feColorMatrix type="matrix" values="0 0 0 0 0 0 0 0 0 0 0 0 0 0 0 0 0 0 0.25 0"/>
<feBlend mode="normal" in2="BackgroundImageFix" result="effect1_dropShadow"/>
<feBlend mode="normal" in="SourceGraphic" in2="effect1_dropShadow" result="shape"/>
<feColorMatrix in="SourceAlpha" type="matrix" values="0 0 0 0 0 0 0 0 0 0 0 0 0 0 0 0 0 0 127 0" result="hardAlpha"/>
<feOffset dy="1"/>
<feGaussianBlur stdDeviation="0.5"/>
<feComposite in2="hardAlpha" operator="arithmetic" k2="-1" k3="1"/>
<feColorMatrix type="matrix" values="0 0 0 0 0.181406 0 0 0 0 0.451546 0 0 0 0 0.5375 0 0 0 0.5 0"/>
<feBlend mode="normal" in2="shape" result="effect2_innerShadow"/>
</filter>
</defs>
</svg>
